<svg xmlns="http://www.w3.org/2000/svg" xml:space="preserve" width="300px" height="300px" x="0px" y="0px" viewBox="0 0 300 300"><path d="M261.579 240.817c-4.78-.393-10.013.772-14.536-.537-20.197-25.245-40.188-50.668-60.314-75.973-6.524-8.813-11.047-18.889-16.664-28.27-9.157-16.408-17.666-33.268-28.522-48.647-3.377-5.076-9.514-7.742-15.542-6.765-2.059 1.621-4.43 3.207-5.238 5.853-1.313 4.119-.548 8.695 1.139 12.599 5.699 12.774 14.955 23.542 24.165 33.908 9.702 10.607 20.274 20.361 30.506 30.448 7.804 6.963 13.691 15.666 20.291 23.702 14.272 17.853 28.244 35.96 42.725 53.637-5.452.081-10.904.044-16.355.039-.074 3.333-.063 6.668-.047 10.006 12.811.004 25.621.006 38.432-.001.004-3.335.016-6.668-.04-9.999zM154.752 164.267c-11.689-9.428-24.18-18.104-37.911-24.297-3.066-1.381-6.342-2.439-9.717-2.613-3.252 1.246-7.119 2.48-8.567 6-2.399 5.042.391 10.655 3.435 14.733 3.778 3.315 8.29 5.661 12.45 8.458 11.357 7.223 24.263 11.811 34.92 20.157 9.631 7.556 18.908 15.655 27.001 24.864 8.664 10.417 14.975 22.484 22.232 33.861 1.496 2.296 2.481 5.002 4.67 6.778l.092-1.659c-3.284-12.946-6.711-25.899-11.645-38.338-6.178-19.831-21.483-34.901-36.96-47.944zM90.178 142.723c-2.076-2.199-5.085-4.339-8.266-3.385-3.583 1.117-7.345 2.926-9.195 6.379-2.386 4.329-2.269 9.566-1.064 14.236 2.848 11.829 9.906 21.977 16.357 32.086 2.254 3.582 4.777 7.381 4.783 11.778.14 1.897-1.733 2.854-2.946 3.938-13.909 10.419-27.709 20.985-41.226 31.908a76.548 76.548 0 0 0-12.029 11.019l2.406.173c5.116-1.544 10.026-3.735 14.958-5.788 18.076-6.627 36.322-13.717 52.004-25.12 4.896-4.156 5.566-11.044 5.78-17.044-.452-15.874-5.391-31.29-12.094-45.567a55.892 55.892 0 0 0-9.468-14.613zM154.729 227.927c-1.363-3.729-3.106-7.982-7.242-9.313-6.655-2.229-13.865-1.793-20.787-1.725-1.736.323-4.115.088-4.991 1.978-.515 1.364-.237 2.525.834 3.482 2.545 1.691 5.611.21 8.397.438 4.598.146 9.321.189 13.759 1.542 1.551.236 2.491 1.487 3.208 2.773-7.347.121-14.695-.033-22.041.067-4.683.127-10.294 1.962-11.758 6.94-1.132 4.972-1.473 11.36 2.687 15.073 2.141 2.071 5.259 2.586 8.125 2.685 8.376 0 16.753-.031 25.13.014 2.437-.024 5.007-.303 7.138-1.578 7.953-4.979 6.361-19.155-2.459-22.376z"/><circle cx="166.365" cy="68.373" r="21.6"/></svg>