<svg xmlns="http://www.w3.org/2000/svg" xml:space="preserve" width="254mm" height="254mm" style="shape-rendering:geometricPrecision;text-rendering:geometricPrecision;image-rendering:optimizeQuality;fill-rule:evenodd;clip-rule:evenodd" viewBox="0 0 254 254"><path d="M37.928 80.528C83.041 70.451 128.2 67.06 173.402 70.356c-4.058 16.295-7.36 30.617-11.43 46.91-38.894-3.57-84.418-1.031-136.573 7.615 1.304-10.177 5.218-24.967 12.53-44.353zm-14.27 94.467h124.114c4.39-17.819 8.397-34.18 12.875-51.974-42.855-3.419-88.37-.655-136.545 8.292-2.09 15.799-2.239 30.36-.445 43.682zm-5.21 5.654h127.933c-6.35 25.793 2.37-9.639-3.976 16.152-37.343 1.993-83.229 3.569-139.108 4.804l-.744 7.723c145.627-3.218 228.311-9.011 248.052-17.378l.744-7.723c-11.835 5.016-45.463 9.06-102.538 12.226L195.777 4.652h-6.105l-14.81 59.854c-41.867-2.815-86.802-.409-133.984 7.546 5.186-13.281 17.01-33.871 37.536-67.4l-7.156-.262c-14.774 22.813-27.1 45.967-36.988 68.938-6.655 14.917-11.898 32.761-15.73 53.529-2.26 17.989-3.244 35.864-.092 53.792zm225.438 43.503c-14.5 2.898-24.6 16.021-39.399 18.087-11.712 2.222-22.044-5.036-32.26-9.487-10.38-5.281-22.077-9.75-33.907-7.497-16.828 2.833-30.427 15.975-47.878 16.338-13.618.258-23.998-10.738-37.204-12.384-14.219-2.106-27.94 3.676-40.93 8.678-2.463.467-4.013 3.908-2.21 5.806 2.395 1.9 5.503.448 7.972-.494 8.148-2.752 16.096-6.474 24.785-7.161 11.062-2.112 21.105 4.206 30.73 8.64 10.515 5.144 23.233 4.835 33.914.362 10.073-3.356 18.871-9.917 29.348-12.157 10.878-3.539 22.176.926 31.758 6.026 11.274 5.193 22.9 12.359 35.856 10.359 13.514-1.266 23.713-10.989 35.5-16.563 2.762-1.568 6.671-.951 8.752-3.57 1.496-2.968-1.874-6.107-4.827-4.983zm-84.263-72.47c6.753 2.464 14.763 2.424 21.276-.703 4.484-2.251 4.253-8.88.505-11.616-6.129-1.2-12.404-.932-18.6-.565a.139.139 0 0 1 .001.073l-3.182 12.811zm-2.984 12.445c8.488 7.774 18.69 13.817 29.88 16.713 11.933 3.589 25.405 5.517 37.164.316 7.814-3.378 12.596-11.175 14.72-19.124 1.19-4.679 1.712-9.927-.546-14.377-1.189-2.652-3.99-4.036-6.572-4.994-3.865-.985-7.324 2.128-8.684 5.494-2.376 4.417-.996 10.09-4.279 14.089-3.18 4.219-8.119 6.69-13 8.39-9.76.755-19.634-1.012-28.878-4.111-6.105-3.06-12.02-6.514-17.924-9.95l-1.869 7.521a.16.16 0 0 1-.012.033zm69.916-50.389c0-11.69-9.48-21.17-21.17-21.17-11.692 0-21.172 9.48-21.172 21.17 0 11.691 9.48 21.172 21.171 21.172 11.69 0 21.171-9.481 21.171-21.172z" class="fil0"/></svg>